# xmcd
#
# Track frame offsets: 
#        150
#        16264
#        27593
#        39051
#        52918
#        67335
#
# Disc length: 1054 seconds
#
# Revision: 0
# Processed by: cddbd v1.5.1PL0 Copyright (c) Steve Scherf et al.
# Submitted via: ExactAudioCopy v0.95a5
#
DISCID=46041c06
DTITLE=Muddy Marsh Ramblers - Demo
DYEAR=1900
DGENRE=Bluegrass
TTITLE0=Above the Timberline
TTITLE1=Koozy
TTITLE2=Sweet Blue Eyed Darlin'
TTITLE3=June Apple
TTITLE4=The How Long Blues
TTITLE5=Bluegrass Breakdown
EXTD=
EXTT0=
EXTT1=
EXTT2=
EXTT3=
EXTT4=
EXTT5=
PLAYORDER=
